
<svg xmlns="http://www.w3.org/2000/svg" viewBox="0 0 512 512">
  <rect x="64" y="64" width="384" height="384" rx="32" fill="#FFFFFF"/>
  <path fill="#EA4335" d="M120,392V162.8l92,75.5L120,392z"/>
  <path fill="#FBBC04" d="M256,264l36,29.5L392,392V162.8L256,264z"/>
  <path fill="#34A853" d="M120,162.8v-34.7c0-8.6,9.8-13.7,16.7-8.7L256,216L375.3,120c6.9-5,16.7,0.1,16.7,8.7v34.1L256,264L120,162.8z"/>
  <path fill="#4285F4" d="M392,162.8v229.3l-92-75.5l-36-29.5l-36,29.5l-92,75.5V162.8l136,101.3L392,162.8z"/>
</svg>
