
<svg xmlns="http://www.w3.org/2000/svg" viewBox="0 0 512 512">
  <circle cx="256" cy="256" r="256" fill="#25D366"/>
  <path fill="#FFFFFF" d="M256,102.4c-84.8,0-153.6,68.8-153.6,153.6c0,33.1,10.4,65.4,29.9,92.2L108,408.1l61.9-19.8c25.6,16.9,55.5,25.7,86.1,25.7c84.8,0,153.6-68.8,153.6-153.6S340.8,102.4,256,102.4z"/>
  <path fill="#25D366" d="M319.4,280.5l-34.6-9.9c-4.7-1.3-9.7,0.3-12.9,4.2l-8.6,10.5c-3.5,4.3-9.6,5.5-14.5,2.9c-17-8.9-54.1-44.7-63.3-61.4c-2.7-4.9-1.7-11,2.5-14.7l8.9-8c3.9-3.5,5.2-8.8,3.3-13.5l-13.4-32.9c-2.8-7-12.2-8.9-17.8-3.5c-11.3,10.9-24.3,27.6-25.8,46.1c-2.2,26.5,8.5,60,50.1,100.2c48.2,46.8,87.4,53.2,113.5,47c18.1-4.3,33.4-18.9,42.7-31.5c4.9-6.6,3.1-16-4-19.5z"/>
</svg>
